<?xml version="1.0" encoding="utf-8"?>
<svg version="1.1" xmlns:xlink="http://www.w3.org/1999/xlink" width="223px" height="304px" xmlns="http://www.w3.org/2000/svg">
  <g transform="matrix(1 0 0 1 -100 -1398 )">
    <path d="M 110.5 1701.5  L 322.5 1701.5  L 322.5 1408.5  L 317.5 1408.5  L 317.5 1403.5  L 312.5 1403.5  L 312.5 1398.5  L 100.5 1398.5  L 100.5 1691.5  L 105.5 1691.5  L 105.5 1696.5  L 110.5 1696.5  L 110.5 1701.5  Z " fill-rule="nonzero" fill="#ffffff" stroke="none" />
    <path d="M 110.5 1701.5  L 322.5 1701.5  L 322.5 1408.5  L 317.5 1408.5  L 317.5 1403.5  L 312.5 1403.5  L 312.5 1398.5  L 100.5 1398.5  L 100.5 1691.5  L 105.5 1691.5  L 105.5 1696.5  L 110.5 1696.5  L 110.5 1701.5  Z " stroke-width="1" stroke="#797979" fill="none" />
    <path d="M 317.5 1409  L 317.5 1696.5  L 111 1696.5  M 312.5 1404  L 312.5 1691.5  L 106 1691.5  " stroke-width="1" stroke="#797979" fill="none" />
  </g>
</svg>