<?xml version="1.0" encoding="utf-8"?>
<svg version="1.1" xmlns:xlink="http://www.w3.org/1999/xlink" width="15px" height="22px" xmlns="http://www.w3.org/2000/svg">
  <g transform="matrix(1 0 0 1 -208 -134 )">
    <path d="M 14.5052083333333 10.033203125  C 14.8350694444444 10.3053385416667  15 10.6276041666667  15 11  C 15 11.3723958333333  14.8350694444444 11.6946614583333  14.5052083333333 11.966796875  L 2.83854166666667 21.591796875  C 2.50868055555556 21.8639322916667  2.11805555555556 22  1.66666666666667 22  C 1.21527777777778 22  0.824652777777778 21.8639322916667  0.494791666666667 21.591796875  C 0.164930555555556 21.3196614583333  0 20.9973958333333  0 20.625  L 0 1.375  C 0 1.00260416666666  0.164930555555556 0.680338541666663  0.494791666666667 0.408203125  C 0.824652777777778 0.136067708333332  1.21527777777778 0  1.66666666666667 0  C 2.11805555555556 0  2.50868055555556 0.136067708333332  2.83854166666667 0.408203125  L 14.5052083333333 10.033203125  Z " fill-rule="nonzero" fill="#ffffff" stroke="none" transform="matrix(1 0 0 1 208 134 )" />
  </g>
</svg>