<?xml version="1.0" encoding="utf-8"?>
<svg version="1.1" xmlns:xlink="http://www.w3.org/1999/xlink" width="11px" height="21px" xmlns="http://www.w3.org/2000/svg">
  <g transform="matrix(1 0 0 1 -1283 -2017 )">
    <path d="M 10.8109965635739 10.0160320641283  C 10.9369988545246 10.1563126252505  11 10.3176352705411  11 10.5  C 11 10.6823647294589  10.9369988545246 10.8436873747495  10.8109965635739 10.9839679358717  L 2.00343642611684 20.7895791583166  C 1.87743413516609 20.9298597194389  1.73253150057274 21  1.56872852233677 21  C 1.4049255441008 21  1.26002290950745 20.9298597194389  1.1340206185567 20.7895791583166  L 0.189003436426117 19.7374749498998  C 0.0630011454753723 19.5971943887776  0 19.435871743487  0 19.2535070140281  C 0 19.0711422845691  0.0630011454753723 18.9098196392786  0.189003436426117 18.7695390781563  L 7.61683848797251 10.5  L 0.189003436426117 2.23046092184369  C 0.0630011454753723 2.09018036072144  0 1.92885771543086  0 1.74649298597194  C 0 1.56412825651302  0.0630011454753723 1.40280561122244  0.189003436426117 1.2625250501002  L 1.1340206185567 0.210420841683367  C 1.26002290950745 0.0701402805611215  1.4049255441008 0  1.56872852233677 0  C 1.73253150057274 0  1.87743413516609 0.0701402805611215  2.00343642611684 0.210420841683367  L 10.8109965635739 10.0160320641283  Z " fill-rule="nonzero" fill="#555555" stroke="none" transform="matrix(1 0 0 1 1283 2017 )" />
  </g>
</svg>