<?xml version="1.0" encoding="utf-8"?>
<svg version="1.1" xmlns:xlink="http://www.w3.org/1999/xlink" width="36px" height="31px" xmlns="http://www.w3.org/2000/svg">
  <g transform="matrix(1 0 0 1 -722 -3200 )">
    <path d="M 4.96205357142857 26.0149739583333  C 5.08258928571429 26.1360677083333  5.14285714285714 26.2907986111111  5.14285714285714 26.4791666666667  L 5.14285714285714 30.3541666666667  C 5.14285714285714 30.5425347222222  5.08258928571429 30.697265625  4.96205357142857 30.818359375  C 4.84151785714286 30.939453125  4.6875 31  4.5 31  L 0.642857142857143 31  C 0.455357142857143 31  0.301339285714286 30.939453125  0.180803571428571 30.818359375  C 0.0602678571428571 30.697265625  0 30.5425347222222  0 30.3541666666667  L 0 26.4791666666667  C 0 26.2907986111111  0.0602678571428571 26.1360677083333  0.180803571428571 26.0149739583333  C 0.301339285714286 25.8938802083333  0.455357142857143 25.8333333333333  0.642857142857143 25.8333333333333  L 4.5 25.8333333333333  C 4.6875 25.8333333333333  4.84151785714286 25.8938802083333  4.96205357142857 26.0149739583333  Z M 12.6763392857143 23.431640625  C 12.796875 23.552734375  12.8571428571429 23.7074652777778  12.8571428571429 23.8958333333333  L 12.8571428571429 30.3541666666667  C 12.8571428571429 30.5425347222222  12.796875 30.697265625  12.6763392857143 30.818359375  C 12.5558035714286 30.939453125  12.4017857142857 31  12.2142857142857 31  L 8.35714285714286 31  C 8.16964285714286 31  8.015625 30.939453125  7.89508928571429 30.818359375  C 7.77455357142857 30.697265625  7.71428571428571 30.5425347222222  7.71428571428571 30.3541666666667  L 7.71428571428571 23.8958333333333  C 7.71428571428571 23.7074652777778  7.77455357142857 23.552734375  7.89508928571429 23.431640625  C 8.015625 23.310546875  8.16964285714286 23.25  8.35714285714286 23.25  L 12.2142857142857 23.25  C 12.4017857142857 23.25  12.5558035714286 23.310546875  12.6763392857143 23.431640625  Z M 20.390625 18.2649739583333  C 20.5111607142857 18.3860677083333  20.5714285714286 18.5407986111111  20 18.7291666666667  L 20 30.3541666666667  C 20.5714285714286 30.5425347222222  20.5111607142857 30.697265625  20.390625 30.818359375  C 20.2700892857143 30.939453125  20.1160714285714 31  19.9285714285714 31  L 16.0714285714286 31  C 15.8839285714286 31  15.7299107142857 30.939453125  15.609375 30.818359375  C 15.4888392857143 30.697265625  15.4285714285714 30.5425347222222  16 30.3541666666667  L 16 18.7291666666667  C 15.4285714285714 18.5407986111111  15.4888392857143 18.3860677083333  15.609375 18.2649739583333  C 15.7299107142857 18.1438802083333  15.8839285714286 18.0833333333333  16.0714285714286 18.0833333333333  L 19.9285714285714 18.0833333333333  C 20.1160714285714 18.0833333333333  20.2700892857143 18.1438802083333  20.390625 18.2649739583333  Z M 28.1049107142857 10.5149739583333  C 28.2254464285714 10.6360677083333  28.2857142857143 10.7907986111111  28 10.9791666666667  L 28 30.3541666666667  C 28.2857142857143 30.5425347222222  28.2254464285714 30.697265625  28.1049107142857 30.818359375  C 27.984375 30.939453125  27.8303571428571 31  27.6428571428571 31  L 23.7857142857143 31  C 23.5982142857143 31  23.4441964285714 30.939453125  23.3236607142857 30.818359375  C 23.203125 30.697265625  23.1428571428571 30.5425347222222  23 30.3541666666667  L 23 10.9791666666667  C 23.1428571428571 10.7907986111111  23.203125 10.6360677083333  23.3236607142857 10.5149739583333  C 23.4441964285714 10.3938802083333  23.5982142857143 10.3333333333333  23.7857142857143 10.3333333333333  L 27.6428571428571 10.3333333333333  C 27.8303571428571 10.3333333333333  27.984375 10.3938802083333  28.1049107142857 10.5149739583333  Z M 35.8191964285714 0.181640625  C 35.9397321428571 0.302734375  36 0.457465277777774  36 0.645833333333334  L 36 30.3541666666667  C 36 30.5425347222222  35.9397321428571 30.697265625  35.8191964285714 30.818359375  C 35.6986607142857 30.939453125  35.5446428571429 31  35.3571428571429 31  L 31.5 31  C 31.3125 31  31.1584821428571 30.939453125  31.0379464285714 30.818359375  C 30.9174107142857 30.697265625  30.8571428571429 30.5425347222222  30.8571428571429 30.3541666666667  L 30.8571428571429 0.645833333333334  C 30.8571428571429 0.457465277777774  30.9174107142857 0.302734375  31.0379464285714 0.181640625  C 31.1584821428571 0.060546875  31.3125 0  31.5 0  L 35.3571428571429 0  C 35.5446428571429 0  35.6986607142857 0.060546875  35.8191964285714 0.181640625  Z " fill-rule="nonzero" fill="#f1854b" stroke="none" transform="matrix(1 0 0 1 722 3200 )" />
  </g>
</svg>