<?xml version="1.0" encoding="utf-8"?>
<svg version="1.1" xmlns:xlink="http://www.w3.org/1999/xlink" width="21px" height="33px" xmlns="http://www.w3.org/2000/svg">
  <g transform="matrix(1 0 0 1 -917 -45 )">
    <path d="M 20.1705729166667 6.49135044642857  C 20.7235243055556 7.798828125  21 9.17075892857143  21 10.6071428571429  C 21 13.3203125  20.1037326388889 15.6805245535714  18.3111979166667 17.6877790178571  C 16.5186631944444 19.6950334821429  14.3038194444444 20.8459821428571  11.6666666666667 21.140625  L 11.6666666666667 32.4107142857143  C 11.6666666666667 32.5825892857143  11.6119791666667 32.7237723214286  11.5026041666667 32.8342633928571  C 11.3932291666667 32.9447544642857  11.2534722222222 33  11.0833333333333 33  L 9.91666666666667 33  C 9.74652777777778 33  9.60677083333333 32.9447544642857  9.49739583333333 32.8342633928571  C 9.38802083333333 32.7237723214286  9.33333333333333 32.5825892857143  9.33333333333333 32.4107142857143  L 9.33333333333333 21.140625  C 6.69618055555556 20.8459821428571  4.48133680555556 19.6950334821429  2.68880208333333 17.6877790178571  C 0.896267361111111 15.6805245535714  0 13.3203125  0 10.6071428571429  C 0 9.17075892857143  0.276475694444444 7.798828125  0.829427083333333 6.49135044642857  C 1.38237847222222 5.18387276785714  2.12977430555556 4.05440848214286  3.07161458333333 3.10295758928572  C 4.01345486111111 2.15150669642857  5.13151041666667 1.396484375  6.42578125 0.837890625  C 7.72005208333333 0.279296875000002  9.078125 0  10.5 0  C 11.921875 0  13.2799479166667 0.279296875000002  14.57421875 0.837890625  C 15.8684895833333 1.396484375  16.9865451388889 2.15150669642857  17.9283854166667 3.10295758928572  C 18.8702256944444 4.05440848214286  19.6176215277778 5.18387276785714  20.1705729166667 6.49135044642857  Z M 4.73046875 16.435546875  C 6.32855902777778 18.0499441964286  8.25173611111111 18.8571428571429  10.5 18.8571428571429  C 12.7482638888889 18.8571428571429  14.6714409722222 18.0499441964286  16.26953125 16.435546875  C 17.8676215277778 14.8211495535714  18.6666666666667 12.8783482142857  18.6666666666667 10.6071428571429  C 18.6666666666667 8.3359375  17.8676215277778 6.39313616071428  16.26953125 4.77873883928572  C 14.6714409722222 3.16434151785714  12.7482638888889 2.35714285714286  10.5 2.35714285714286  C 8.25173611111111 2.35714285714286  6.32855902777778 3.16434151785714  4.73046875 4.77873883928572  C 3.13237847222222 6.39313616071428  2.33333333333333 8.3359375  2.33333333333333 10.6071428571429  C 2.33333333333333 12.8783482142857  3.13237847222222 14.8211495535714  4.73046875 16.435546875  Z " fill-rule="nonzero" fill="#ffffff" stroke="none" transform="matrix(1 0 0 1 917 45 )" />
  </g>
</svg>