<?xml version="1.0" encoding="utf-8"?>
<svg version="1.1" xmlns:xlink="http://www.w3.org/1999/xlink" width="2px" height="11px" xmlns="http://www.w3.org/2000/svg">
  <g transform="matrix(1 0 0 1 -1222 -215 )">
    <path d="M 1.97526041666667 8.96328125  C 1.99175347222222 9.07213541666667  2 9.20104166666667  2 9.35  L 2 10.45  C 2 10.5989583333333  1.99175347222222 10.7278645833333  1.97526041666667 10.83671875  C 1.95876736111111 10.9455729166667  1.93923611111111 11  1.91666666666667 11  L 0.0833333333333333 11  C 0.0607638888888889 11  0.0412326388888889 10.9455729166667  0.0247395833333333 10.83671875  C 0.00824652777777778 10.7278645833333  0 10.5989583333333  0 10.45  L 0 9.35  C 0 9.20104166666667  0.00824652777777778 9.07213541666667  0.0247395833333333 8.96328125  C 0.0412326388888889 8.85442708333333  0.0607638888888889 8.8  0.0833333333333333 8.8  L 1.91666666666667 8.8  C 1.93923611111111 8.8  1.95876736111111 8.85442708333333  1.97526041666667 8.96328125  Z M 1.97526041666667 4.56328125  C 1.99175347222222 4.67213541666667  2 4.80104166666667  2 4.95  L 2 6.05  C 2 6.19895833333333  1.99175347222222 6.32786458333333  1.97526041666667 6.43671875  C 1.95876736111111 6.54557291666667  1.93923611111111 6.6  1.91666666666667 6.6  L 0.0833333333333333 6.6  C 0.0607638888888889 6.6  0.0412326388888889 6.54557291666667  0.0247395833333333 6.43671875  C 0.00824652777777778 6.32786458333333  0 6.19895833333333  0 6.05  L 0 4.95  C 0 4.80104166666667  0.00824652777777778 4.67213541666667  0.0247395833333333 4.56328125  C 0.0412326388888889 4.45442708333333  0.0607638888888889 4.4  0.0833333333333333 4.4  L 1.91666666666667 4.4  C 1.93923611111111 4.4  1.95876736111111 4.45442708333333  1.97526041666667 4.56328125  Z M 1.97526041666667 0.16328125  C 1.99175347222222 0.272135416666666  2 0.401041666666666  2 0.55  L 2 1.65  C 2 1.79895833333333  1.99175347222222 1.92786458333333  1.97526041666667 2.03671875  C 1.95876736111111 2.14557291666667  1.93923611111111 2.2  1.91666666666667 2.2  L 0.0833333333333333 2.2  C 0.0607638888888889 2.2  0.0412326388888889 2.14557291666667  0.0247395833333333 2.03671875  C 0.00824652777777778 1.92786458333333  0 1.79895833333333  0 1.65  L 0 0.55  C 0 0.401041666666666  0.00824652777777778 0.272135416666666  0.0247395833333333 0.16328125  C 0.0412326388888889 0.0544270833333327  0.0607638888888889 0  0.0833333333333333 0  L 1.91666666666667 0  C 1.93923611111111 0  1.95876736111111 0.0544270833333327  1.97526041666667 0.16328125  Z " fill-rule="nonzero" fill="#7f7f7f" stroke="none" transform="matrix(1 0 0 1 1222 215 )" />
  </g>
</svg>