<?xml version="1.0" encoding="utf-8"?>
<svg version="1.1" xmlns:xlink="http://www.w3.org/1999/xlink" width="9px" height="11px" xmlns="http://www.w3.org/2000/svg">
  <g transform="matrix(1 0 0 1 -1225 -215 )">
    <path d="M 8.888671875 8.96328125  C 8.962890625 9.07213541666667  9 9.20104166666667  9 9.35  L 9 10.45  C 9 10.5989583333333  8.962890625 10.7278645833333  8.888671875 10.83671875  C 8.814453125 10.9455729166667  8.7265625 11  8.625 11  L 0.375 11  C 0.2734375 11  0.185546875 10.9455729166667  0.111328125 10.83671875  C 0.037109375 10.7278645833333  0 10.5989583333333  0 10.45  L 0 9.35  C 0 9.20104166666667  0.037109375 9.07213541666667  0.111328125 8.96328125  C 0.185546875 8.85442708333333  0.2734375 8.8  0.375 8.8  L 8.625 8.8  C 8.7265625 8.8  8.814453125 8.85442708333333  8.888671875 8.96328125  Z M 8.888671875 4.56328125  C 8.962890625 4.67213541666667  9 4.80104166666667  9 4.95  L 9 6.05  C 9 6.19895833333333  8.962890625 6.32786458333333  8.888671875 6.43671875  C 8.814453125 6.54557291666667  8.7265625 6.6  8.625 6.6  L 0.375 6.6  C 0.2734375 6.6  0.185546875 6.54557291666667  0.111328125 6.43671875  C 0.037109375 6.32786458333333  0 6.19895833333333  0 6.05  L 0 4.95  C 0 4.80104166666667  0.037109375 4.67213541666667  0.111328125 4.56328125  C 0.185546875 4.45442708333333  0.2734375 4.4  0.375 4.4  L 8.625 4.4  C 8.7265625 4.4  8.814453125 4.45442708333333  8.888671875 4.56328125  Z M 8.888671875 0.16328125  C 8.962890625 0.272135416666666  9 0.401041666666666  9 0.55  L 9 1.65  C 9 1.79895833333333  8.962890625 1.92786458333333  8.888671875 2.03671875  C 8.814453125 2.14557291666667  8.7265625 2.2  8.625 2.2  L 0.375 2.2  C 0.2734375 2.2  0.185546875 2.14557291666667  0.111328125 2.03671875  C 0.037109375 1.92786458333333  0 1.79895833333333  0 1.65  L 0 0.55  C 0 0.401041666666666  0.037109375 0.272135416666666  0.111328125 0.16328125  C 0.185546875 0.0544270833333327  0.2734375 0  0.375 0  L 8.625 0  C 8.7265625 0  8.814453125 0.0544270833333327  8.888671875 0.16328125  Z " fill-rule="nonzero" fill="#7f7f7f" stroke="none" transform="matrix(1 0 0 1 1225 215 )" />
  </g>
</svg>