<?xml version="1.0" encoding="utf-8"?>
<svg version="1.1" xmlns:xlink="http://www.w3.org/1999/xlink" width="3px" height="7px" xmlns="http://www.w3.org/2000/svg">
  <g transform="matrix(1 0 0 1 -106 -11 )">
    <path d="M 2.96493506493507 1.59606481481482  C 2.9987012987013 1.63927469135802  3.00519480519481 1.68653549382716  2.98441558441558 1.73784722222222  C 2.96103896103896 1.78915895061728  2.92337662337662 1.81481481481482  2.87142857142857 1.81481481481482  L 1.9987012987013 1.81481481481482  L 1.9987012987013 6.87037037037037  C 1.9987012987013 6.90817901234568  1.98701298701299 6.93923611111111  1.96363636363636 6.96354166666667  C 1.94025974025974 6.98784722222222  1.91038961038961 7  1.87402597402597 7  L 1.12597402597403 7  C 1.08961038961039 7  1.05974025974026 6.98784722222222  1.03636363636364 6.96354166666667  C 1.01298701298701 6.93923611111111  1.0012987012987 6.90817901234568  1.0012987012987 6.87037037037037  L 1.0012987012987 1.81481481481482  L 0.128571428571429 1.81481481481482  C 0.074025974025974 1.81481481481482  0.0363636363636364 1.78915895061728  0.0155844155844156 1.73784722222222  C -0.0051948051948052 1.68653549382716  0.0012987012987013 1.63927469135802  0.0350649350649351 1.59606481481482  L 1.3987012987013 0.0405092592592596  C 1.42467532467532 0.013503086419753  1.45454545454545 0  1.48831168831169 0  C 1.52467532467532 0  1.55584415584416 0.013503086419753  1.58181818181818 0.0405092592592596  L 2.96493506493507 1.59606481481482  Z " fill-rule="nonzero" fill="#f1854b" stroke="none" transform="matrix(1 0 0 1 106 11 )" />
  </g>
</svg>