<?xml version="1.0" encoding="utf-8"?>
<svg version="1.1" xmlns:xlink="http://www.w3.org/1999/xlink" width="21px" height="28px" xmlns="http://www.w3.org/2000/svg">
  <g transform="matrix(1 0 0 1 -70 -34 )">
    <path d="M 14.2119140625 12.6328125  C 15.2373046875 11.7213541666667  15.75 10.6215277777778  15.75 9.33333333333333  C 15.75 8.04513888888889  15.2373046875 6.9453125  14.2119140625 6.03385416666667  C 13.1865234375 5.12239583333333  11.94921875 4.66666666666667  10.5 4.66666666666667  C 9.05078125 4.66666666666667  7.8134765625 5.12239583333333  6.7880859375 6.03385416666667  C 5.7626953125 6.9453125  5.25 8.04513888888889  5.25 9.33333333333333  C 5.25 10.6215277777778  5.7626953125 11.7213541666667  6.7880859375 12.6328125  C 7.8134765625 13.5442708333333  9.05078125 14  10.5 14  C 11.94921875 14  13.1865234375 13.5442708333333  14.2119140625 12.6328125  Z M 17.923828125 2.734375  C 19.974609375 4.55729166666667  21 6.75694444444444  21 9.33333333333333  C 21 10.6579861111111  20.7744140625 11.7456597222222  20.3232421875 12.5963541666667  L 12.8583984375 26.7057291666667  C 12.6396484375 27.1067708333333  12.31494140625 27.4227430555556  11.88427734375 27.6536458333333  C 11.45361328125 27.8845486111111  10.9921875 28  10.5 28  C 10.0078125 28  9.54638671875 27.8845486111111  9.11572265625 27.6536458333333  C 8.68505859375 27.4227430555556  8.3671875 27.1067708333333  8.162109375 26.7057291666667  L 0.6767578125 12.5963541666667  C 0.2255859375 11.7456597222222  0 10.6579861111111  0 9.33333333333333  C 0 6.75694444444444  1.025390625 4.55729166666667  3.076171875 2.734375  C 5.126953125 0.911458333333334  7.6015625 0  10.5 0  C 13.3984375 0  15.873046875 0.911458333333334  17.923828125 2.734375  Z " fill-rule="nonzero" fill="#000000" stroke="none" transform="matrix(1 0 0 1 70 34 )" />
  </g>
</svg>