<?xml version="1.0" encoding="utf-8"?>
<svg version="1.1" xmlns:xlink="http://www.w3.org/1999/xlink" width="20px" height="35px" xmlns="http://www.w3.org/2000/svg">
  <g transform="matrix(1 0 0 1 -109 -527 )">
    <path d="M 19.6563573883161 2.10420841683367  C 19.8854524627721 2.3380093520374  20 2.60688042752171  20 2.91082164328657  C 20 3.21476285905143  19.8854524627721 3.48363393453574  19.6563573883161 3.71743486973948  L 6.15120274914089 17.5  L 19.6563573883161 31.2825651302605  C 19.8854524627721 31.5163660654643  20 31.7852371409486  20 32.0891783567134  C 20 32.3931195724783  19.8854524627721 32.6619906479626  19.6563573883161 32.8957915831663  L 17.9381443298969 34.6492985971944  C 17.709049255441 34.8830995323981  17.4455899198167 35  17.1477663230241 35  C 16.8499427262314 35  16.5864833906071 34.8830995323981  16.3573883161512 34.6492985971944  L 0.343642611683849 18.3066132264529  C 0.11454753722795 18.0728122912492  0 17.8039412157649  0 17.5  C 0 17.1960587842351  0.11454753722795 16.9271877087508  0.343642611683849 16.6933867735471  L 16.3573883161512 0.350701402805612  C 16.5864833906071 0.116900467601869  16.8499427262314 0  17.1477663230241 0  C 17.4455899198167 0  17.709049255441 0.116900467601869  17.9381443298969 0.350701402805612  L 19.6563573883161 2.10420841683367  Z " fill-rule="nonzero" fill="#ffffff" stroke="none" transform="matrix(1 0 0 1 109 527 )" />
  </g>
</svg>