<?xml version="1.0" encoding="utf-8"?>
<svg version="1.1" xmlns:xlink="http://www.w3.org/1999/xlink" width="20px" height="35px" xmlns="http://www.w3.org/2000/svg">
  <g transform="matrix(1 0 0 1 -1273 -527 )">
    <path d="M 19.6563573883161 16.6933867735471  C 19.8854524627721 16.9271877087508  20 17.1960587842351  20 17.5  C 20 17.8039412157649  19.8854524627721 18.0728122912492  19.6563573883161 18.3066132264529  L 3.6426116838488 34.6492985971944  C 3.4135166093929 34.8830995323981  3.15005727376861 35  2.85223367697594 35  C 2.55441008018328 35  2.29095074455899 34.8830995323981  2.06185567010309 34.6492985971944  L 0.343642611683849 32.8957915831663  C 0.11454753722795 32.6619906479626  0 32.3931195724783  0 32.0891783567134  C 0 31.7852371409486  0.11454753722795 31.5163660654643  0.343642611683849 31.2825651302605  L 13.8487972508591 17.5  L 0.343642611683849 3.71743486973948  C 0.11454753722795 3.48363393453574  0 3.21476285905143  0 2.91082164328657  C 0 2.60688042752171  0.11454753722795 2.3380093520374  0.343642611683849 2.10420841683367  L 2.06185567010309 0.350701402805612  C 2.29095074455899 0.116900467601869  2.55441008018328 0  2.85223367697594 0  C 3.15005727376861 0  3.4135166093929 0.116900467601869  3.6426116838488 0.350701402805612  L 19.6563573883161 16.6933867735471  Z " fill-rule="nonzero" fill="#ffffff" stroke="none" transform="matrix(1 0 0 1 1273 527 )" />
  </g>
</svg>