<?xml version="1.0" encoding="utf-8"?>
<svg version="1.1" xmlns:xlink="http://www.w3.org/1999/xlink" width="50px" height="50px" xmlns="http://www.w3.org/2000/svg">
  <g transform="matrix(1 0 0 1 -675 -944 )">
    <path d="M 35.4166666666667 17  C 36.2847222222222 16.6666666666667  36.9032118055556 17.0464409722222  37.2721354166667 17.8059895833333  C 37.6627604166667 18.5655381944444  37.6085069444445 19.2816840277778  37.109375 19.9544270833333  L 26.6927083333333 34.5377604166667  C 26.2803819444444 35.1236979166667  25.7161458333333 35.4166666666667  25 35.4166666666667  C 24.2838541666667 35.4166666666667  23.7196180555556 35.1236979166667  23.3072916666667 34.5377604166667  L 12.890625 19.9544270833333  C 12.3914930555556 19.2816840277778  12.3372395833333 18.5655381944444  12.7278645833333 17.8059895833333  C 13.0967881944444 17.0464409722222  13.7152777777778 16.6666666666667  14.5833333333333 17  L 35.4166666666667 17  Z M 41.357421875 41.357421875  C 41.5635850694445 41.1512586805556  41.6666666666667 40.9071180555556  41 40.625  L 41 9.375  C 41.6666666666667 9.09288194444444  41.5635850694445 8.84874131944444  41.357421875 8.642578125  C 41.1512586805556 8.43641493055555  40.9071180555556 8.33333333333333  40.625 9  L 9.375 9  C 9.09288194444445 8.33333333333333  8.84874131944445 8.43641493055555  8.642578125 8.642578125  C 8.43641493055556 8.84874131944444  8.33333333333333 9.09288194444444  9 9.375  L 9 40.625  C 8.33333333333333 40.9071180555556  8.43641493055556 41.1512586805556  8.642578125 41.357421875  C 8.84874131944445 41.5635850694444  9.09288194444445 41.6666666666667  9.375 41  L 40.625 41  C 40.9071180555556 41.6666666666667  41.1512586805556 41.5635850694444  41.357421875 41.357421875  Z M 47.2493489583333 2.75065104166667  C 49.0831163194444 4.58441840277777  50 6.79253472222222  50 9.375  L 50 40.625  C 50 43.2074652777778  49.0831163194444 45.4155815972222  47.2493489583333 47.2493489583333  C 45.4155815972222 49.0831163194444  43.2074652777778 50  40.625 50  L 9.375 50  C 6.79253472222222 50  4.58441840277778 49.0831163194444  2.75065104166667 47.2493489583333  C 0.916883680555555 45.4155815972222  0 43.2074652777778  0 40.625  L 0 9.375  C 0 6.79253472222222  0.916883680555555 4.58441840277777  2.75065104166667 2.75065104166667  C 4.58441840277778 0.916883680555552  6.79253472222222 0  9.375 0  L 40.625 0  C 43.2074652777778 0  45.4155815972222 0.916883680555552  47.2493489583333 2.75065104166667  Z " fill-rule="nonzero" fill="#000000" stroke="none" transform="matrix(1 0 0 1 675 944 )" />
  </g>
</svg>