<?xml version="1.0" encoding="utf-8"?>
<svg version="1.1" xmlns:xlink="http://www.w3.org/1999/xlink" width="11px" height="8px" xmlns="http://www.w3.org/2000/svg">
  <g transform="matrix(1 0 0 1 -30 -435 )">
    <path d="M 10.3396958220703 1.71389068415179  C 10.3336462001953 1.02250556026786  9.79523004238281 0.456826828125  9.12977187246094 0.456826828125  C 8.46431369072266 0.456826828125  7.91984791103516 1.02250556026786  7.91984791103516 1.71389068415179  C 7.91984791103516 2.40527580803571  8.46431369072266 2.94581325446428  9.12977187246094 2.97095452790178  C 9.81337890800781 2.99609580133928  10.3457454439453 2.41784643861607  10.3396958220703 1.71389068415179  Z M 3.08015208896484 6.74214608370536  C 3.09830094277344 6.05076095982143  2.53568630927734 5.48508222767857  1.87022812753906 5.48508223995536  C 1.20476994580078 5.48508223995536  0.660304166113281 6.05076097209821  0.660304177929688 6.74214608370536  C 0.660304189746094 7.4335311953125  1.20476995761719 7.97406865401786  1.87022812753906 7.99920993973214  C 2.50543819990234 8.02435121316964  3.06200322333984 7.44610185044643  3.08015208896484 6.74214608370536  Z " fill-rule="nonzero" fill="#ffffff" stroke="none" fill-opacity="0.666666666666667" transform="matrix(1 0 0 1 30 435 )" />
  </g>
</svg>